<mxfile host="app.diagrams.net" modified="2021-03-10T12:58:43.153Z" agent="5.0 (Windows)" etag="818UNkAn_SnDw43XMUA3" version="14.4.6" type="github">
  <diagram id="N4wPca4UjXj0loHW607_" name="Page-1">
    <mxGraphModel dx="1483" dy="821" grid="1" gridSize="10" guides="0" tooltips="1" connect="1" arrows="0" fold="1" page="1" pageScale="1" pageWidth="850" pageHeight="1100" math="0" shadow="0">
      <root>
        <mxCell id="0" />
        <mxCell id="1" parent="0" />
        <mxCell id="n_nycdXtxx2qEFfKbzDo-7" value="" style="whiteSpace=wrap;html=1;aspect=fixed;" parent="1" vertex="1">
          <mxGeometry x="640" y="48" width="540" height="540" as="geometry" />
        </mxCell>
        <mxCell id="n_nycdXtxx2qEFfKbzDo-1" value="" style="rounded=1;whiteSpace=wrap;html=1;fillColor=#bac8d3;strokeColor=#23445d;" parent="1" vertex="1">
          <mxGeometry x="640" y="78" width="540" height="480" as="geometry" />
        </mxCell>
        <mxCell id="n_nycdXtxx2qEFfKbzDo-3" value="" style="shape=tape;whiteSpace=wrap;html=1;rotation=-15;" parent="1" vertex="1">
          <mxGeometry x="690" y="333" width="24" height="20" as="geometry" />
        </mxCell>
        <mxCell id="n_nycdXtxx2qEFfKbzDo-5" value="" style="shape=document;whiteSpace=wrap;html=1;boundedLbl=1;rotation=30;" parent="1" vertex="1">
          <mxGeometry x="670" y="98" width="30" height="20" as="geometry" />
        </mxCell>
        <mxCell id="n_nycdXtxx2qEFfKbzDo-6" value="" style="shape=tape;whiteSpace=wrap;html=1;rotation=15;" parent="1" vertex="1">
          <mxGeometry x="1110" y="123" width="20" height="16.67" as="geometry" />
        </mxCell>
        <mxCell id="Wjk0ldOucOV_jlpdC3WD-1" value="" style="whiteSpace=wrap;html=1;aspect=fixed;" vertex="1" parent="1">
          <mxGeometry y="50" width="540" height="540" as="geometry" />
        </mxCell>
        <mxCell id="Wjk0ldOucOV_jlpdC3WD-2" value="&lt;div&gt;Main Menu&lt;/div&gt;&lt;div&gt;&lt;br&gt;&lt;/div&gt;" style="text;html=1;strokeColor=none;fillColor=none;align=center;verticalAlign=middle;whiteSpace=wrap;rounded=0;" vertex="1" parent="1">
          <mxGeometry x="220" y="30" width="90" height="20" as="geometry" />
        </mxCell>
        <mxCell id="Wjk0ldOucOV_jlpdC3WD-6" value="In Game Screen" style="text;html=1;strokeColor=none;fillColor=none;align=center;verticalAlign=middle;whiteSpace=wrap;rounded=0;" vertex="1" parent="1">
          <mxGeometry x="865" y="20" width="90" height="20" as="geometry" />
        </mxCell>
        <mxCell id="Wjk0ldOucOV_jlpdC3WD-9" value="" style="group" vertex="1" connectable="0" parent="1">
          <mxGeometry x="860" y="558" width="110" height="30" as="geometry" />
        </mxCell>
        <mxCell id="Wjk0ldOucOV_jlpdC3WD-5" value="" style="rounded=0;whiteSpace=wrap;html=1;" vertex="1" parent="Wjk0ldOucOV_jlpdC3WD-9">
          <mxGeometry width="110" height="30" as="geometry" />
        </mxCell>
        <mxCell id="Wjk0ldOucOV_jlpdC3WD-7" value="00:00" style="text;html=1;strokeColor=none;fillColor=none;align=center;verticalAlign=middle;whiteSpace=wrap;rounded=0;" vertex="1" parent="Wjk0ldOucOV_jlpdC3WD-9">
          <mxGeometry x="10" y="7.5" width="90" height="15" as="geometry" />
        </mxCell>
        <mxCell id="Wjk0ldOucOV_jlpdC3WD-15" value="" style="group" vertex="1" connectable="0" parent="1">
          <mxGeometry x="980" y="558" width="42" height="30" as="geometry" />
        </mxCell>
        <mxCell id="Wjk0ldOucOV_jlpdC3WD-12" value="" style="rounded=0;whiteSpace=wrap;html=1;" vertex="1" parent="Wjk0ldOucOV_jlpdC3WD-15">
          <mxGeometry width="42" height="30" as="geometry" />
        </mxCell>
        <mxCell id="Wjk0ldOucOV_jlpdC3WD-14" value="" style="html=1;shadow=0;dashed=0;align=center;verticalAlign=middle;shape=mxgraph.arrows2.jumpInArrow;dy=3.2;dx=38.28;arrowHead=31.39;fillColor=#b0e3e6;strokeColor=#0e8088;" vertex="1" parent="Wjk0ldOucOV_jlpdC3WD-15">
          <mxGeometry x="6" y="6" width="30" height="18" as="geometry" />
        </mxCell>
        <mxCell id="Wjk0ldOucOV_jlpdC3WD-19" value="" style="group;direction=east;" vertex="1" connectable="0" parent="1">
          <mxGeometry x="810" y="558" width="42" height="30" as="geometry" />
        </mxCell>
        <mxCell id="Wjk0ldOucOV_jlpdC3WD-20" value="" style="rounded=0;whiteSpace=wrap;html=1;direction=west;" vertex="1" parent="Wjk0ldOucOV_jlpdC3WD-19">
          <mxGeometry width="42" height="30" as="geometry" />
        </mxCell>
        <mxCell id="Wjk0ldOucOV_jlpdC3WD-21" value="" style="html=1;shadow=0;dashed=0;align=center;verticalAlign=middle;shape=mxgraph.arrows2.jumpInArrow;dy=3.2;dx=38.28;arrowHead=31.39;fillColor=#b0e3e6;strokeColor=#0e8088;direction=west;" vertex="1" parent="Wjk0ldOucOV_jlpdC3WD-19">
          <mxGeometry x="6" y="6" width="30" height="18" as="geometry" />
        </mxCell>
        <mxCell id="Wjk0ldOucOV_jlpdC3WD-22" value="" style="rounded=0;whiteSpace=wrap;html=1;fillColor=none;" vertex="1" parent="1">
          <mxGeometry x="640" y="48" width="540" height="20" as="geometry" />
        </mxCell>
        <mxCell id="Wjk0ldOucOV_jlpdC3WD-23" value="Help" style="text;html=1;strokeColor=none;fillColor=none;align=center;verticalAlign=middle;whiteSpace=wrap;rounded=0;" vertex="1" parent="1">
          <mxGeometry x="710" y="48" width="40" height="20" as="geometry" />
        </mxCell>
        <mxCell id="Wjk0ldOucOV_jlpdC3WD-24" value="Menu" style="text;html=1;strokeColor=none;fillColor=none;align=center;verticalAlign=middle;whiteSpace=wrap;rounded=0;" vertex="1" parent="1">
          <mxGeometry x="650" y="48" width="40" height="20" as="geometry" />
        </mxCell>
        <mxCell id="Wjk0ldOucOV_jlpdC3WD-25" value="Settings" style="text;html=1;strokeColor=none;fillColor=none;align=center;verticalAlign=middle;whiteSpace=wrap;rounded=0;" vertex="1" parent="1">
          <mxGeometry x="220" y="300" width="90" height="15" as="geometry" />
        </mxCell>
        <mxCell id="Wjk0ldOucOV_jlpdC3WD-26" value="Play" style="text;html=1;strokeColor=none;fillColor=none;align=center;verticalAlign=middle;whiteSpace=wrap;rounded=0;" vertex="1" parent="1">
          <mxGeometry x="220" y="260" width="90" height="15" as="geometry" />
        </mxCell>
        <mxCell id="Wjk0ldOucOV_jlpdC3WD-27" value="Quit" style="text;html=1;strokeColor=none;fillColor=none;align=center;verticalAlign=middle;whiteSpace=wrap;rounded=0;" vertex="1" parent="1">
          <mxGeometry x="220" y="340" width="90" height="15" as="geometry" />
        </mxCell>
        <mxCell id="Wjk0ldOucOV_jlpdC3WD-28" value="" style="rounded=0;whiteSpace=wrap;html=1;fillColor=none;" vertex="1" parent="1">
          <mxGeometry x="220" y="250" width="90" height="30" as="geometry" />
        </mxCell>
        <mxCell id="Wjk0ldOucOV_jlpdC3WD-29" value="" style="rounded=0;whiteSpace=wrap;html=1;fillColor=none;" vertex="1" parent="1">
          <mxGeometry x="220" y="290" width="90" height="30" as="geometry" />
        </mxCell>
        <mxCell id="Wjk0ldOucOV_jlpdC3WD-30" value="" style="rounded=0;whiteSpace=wrap;html=1;fillColor=none;" vertex="1" parent="1">
          <mxGeometry x="220" y="330" width="90" height="30" as="geometry" />
        </mxCell>
      </root>
    </mxGraphModel>
  </diagram>
</mxfile>
